<svg width="520" height="420" viewBox="0 0 520 420" fill="none" xmlns="http://www.w3.org/2000/svg">
  <path d="M139 335C159 366 343 368 382 335C421 303 411 240 376 210C342 181 296 201 259 185C222 170 200 126 158 139C116 152 87 211 94 260C100 297 119 304 139 335Z" fill="#F8FBFF"/>
  <path d="M177 183H322C343 183 360 200 360 221V296C360 318 342 336 320 336H178C156 336 138 318 138 296V222C138 200 155 183 177 183Z" fill="#E59A3A"/>
  <path d="M138 222C138 200 155 183 177 183H322C343 183 360 200 360 221V285C360 307 342 325 320 325H178C156 325 138 307 138 285V222Z" fill="#F6B752"/>
  <rect x="203" y="161" width="94" height="36" rx="12" fill="#A5662E"/>
  <circle cx="249" cy="258" r="31" fill="#FFD99B"/>
  <path d="M91 185L135 166L178 185L169 268L126 315L83 268L74 185L91 185Z" fill="#43B5EA"/>
  <path d="M102 205L126 194L151 205L146 255L126 278L106 255L102 205Z" fill="#65D3FF"/>
  <circle cx="126" cy="236" r="14" fill="#2B6FC3"/>
  <path d="M370 169L414 150L457 169L448 252L405 299L362 252L353 169L370 169Z" fill="#43B5EA"/>
  <path d="M381 189L405 178L430 189L425 239L405 262L385 239L381 189Z" fill="#65D3FF"/>
  <circle cx="405" cy="220" r="14" fill="#2B6FC3"/>
  <path d="M113 179C113 141 137 114 169 114C202 114 226 141 226 179V301H113V179Z" fill="#142D52"/>
  <path d="M112 182C112 160 128 142 150 142H188C210 142 226 160 226 182V264H112V182Z" fill="#F4F7FB"/>
  <circle cx="169" cy="107" r="27" fill="#F1B7A0"/>
  <path d="M337 191C337 157 359 132 388 132C418 132 440 157 440 191V301H337V191Z" fill="#142D52"/>
  <path d="M336 194C336 174 351 158 371 158H405C425 158 440 174 440 194V260H336V194Z" fill="#F4F7FB"/>
  <circle cx="388" cy="126" r="24" fill="#F1B7A0"/>
  <path d="M55 327C73 313 85 317 92 336C111 322 125 326 132 343C118 359 101 363 86 355C73 349 61 340 55 327Z" fill="#43C99B"/>
  <path d="M90 333C80 307 87 291 100 279C111 299 109 318 90 333Z" fill="#43C99B"/>
  <ellipse cx="257" cy="360" rx="172" ry="21" fill="#EDF3F8"/>
</svg>
